<?xml version="1.0" encoding="utf-8"?><svg id="hero-animation" baseProfile="basic" width="720" height="450" xmlns="http://www.w3.org/2000/svg" viewBox="0 0 720 450" xmlns:xlink="http://www.w3.org/1999/xlink"><script type="text/javascript"><![CDATA[
    // handle restart of animation on click
    window.onload = function() {
      var animation_duration = 10,
          svg_root, svg_scene;

      // get SVG root element
      svg_root = document.getElementsByTagName('svg')[0];

      // get SVG scene
      svg_scene = document.getElementById('Scene_1_l1');

      // SVG animation starts when `start` custom event is being triggered
      function start_hero_animation() {
        // reset animation time and start over
        svg_root.setCurrentTime(0);

        var e = document.createEvent('Event');
        e.initEvent('start', false, false);
        svg_scene.dispatchEvent(e);
      };

      // restart the animation only once finished
      function restart_hero_animation(e) {
        if (typeof e !== 'undefined') {
          e.stopPropagation();
        }

        // if animation hasn't finished then skip
        if (svg_root.getCurrentTime() < animation_duration) {
          return false;
        }

        start_hero_animation();
      };

      // hack: start it immediately and pause the animation so as user doesn't
      //       see the last slide as the first one

      // pause all animations
      svg_root.pauseAnimations();

      // start animation
      start_hero_animation();
      
      // also, setTimeout is used so as autoplay works on Safari too
      setTimeout(function() {
        start_hero_animation();
      }, 0);

      // on first load, start animation a bit later
      setTimeout(function() {
        // unpause animations
        svg_root.unpauseAnimations();

        // bind on click event so as user can restart the animation
        svg_scene.addEventListener('click', restart_hero_animation, false);
      }, 1000);
    }
  ]]></script><defs><symbol id="swipe_hand" overflow="visible"><path fill="#2B2B2A" d="M6.05-15.25Q4.45-16.3 2.6-16.3q-2.15 0-3.8 1.25v-12.6q0-2.65-1.8-4.45Q-4.8-34-7.5-34q-2.6 0-4.4 1.9-1.85 1.8-1.85 4.45v22.4q-9.8-8.8-14.1-4.55-3.05 3.05 1.95 11.15 3 5 11.65 18.55 7.9 14.15 21.85 14.15 8.9 0 15.1-6.3 6.25-6.2 6.25-15.1V-2.5q0-2.65-1.85-4.5-1.8-1.8-4.45-1.8-2.05 0-3.75 1.25 0-2.6-1.8-4.4-1.85-1.85-4.45-1.85-2.45 0-4.3 1.45-.75-1.85-2.3-2.9"/><path fill="#FFF" d="M5.25-12.7q-1.2-1.1-2.7-1.1-1.45 0-2.6 1.1-1.15 1.1-1.15 2.65v9.4h-2.5v-27q0-1.55-1.1-2.65-1.2-1.15-2.7-1.15-1.5 0-2.6 1.15-1.15 1.1-1.15 2.65V.8q-11.45-12.15-14.8-8.85-1.75 1.75 2.3 8.3Q-21.1 4.6-12 18.9q3.75 6.1 7.95 9.05Q.9 31.5 7.6 31.5q7.65 0 13.3-5.75 5.5-5.65 5.5-13.1V-2.5q0-1.5-1.1-2.6-1.1-1.2-2.65-1.2-1.5 0-2.65 1.2-1.1 1.1-1.1 2.6v1.85h-2.55v-6.9q0-1.5-1.1-2.6-1.15-1.2-2.6-1.2-1.55 0-2.7 1.2-1.1 1.1-1.1 2.6v4.75h-2.5v-7.25q0-1.55-1.1-2.65"/></symbol><symbol id="cursor" overflow="visible"><path fill="#2B2B2A" d="M6.8-.15q.1-.7-.45-1.05l-11.5-7.4q-.5-.35-1.05 0-.55.25-.55.9V5.8q0 .65.55.95.6.25 1.15-.15l2.9-2.5 4.1 6.45q.25.5.85.5.35 0 .55-.15l3-1.9q.35-.15.45-.65.15-.4-.1-.8L2.85 1.6l3.2-.9q.7-.25.75-.85"/><path fill="#FFF" d="M5.85-.1l.1-.15-.05-.2L-5.7-7.9q-.2.05-.2.2V5.8l.1.2.2-.05L-2 2.8l4.65 7.3q.15.15.25.05l3-1.85.1-.15v-.1L1.55 1.1l4.3-1.2"/></symbol><symbol id="browser" overflow="visible"><path fill="#424251" d="M310.5 233.55q3.3 0 5.65-2.35 2.35-2.3 2.35-5.65V-159.5h-637v385.05q0 3.35 2.35 5.65 2.3 2.35 5.65 2.35h621"/><path fill="#FFF" d="M318.5-159.5v-42h-637v42h637"/><path fill="#EEE" d="M313.6-232.9q-1.5-.6-3.1-.6h-621q-1.65 0-3.15.6-1.4.6-2.55 1.7-1.1 1.1-1.7 2.55-.6 1.5-.6 3.15v24h637v-24q0-1.65-.65-3.15-.6-1.4-1.7-2.55-1.15-1.1-2.55-1.7"/><path fill="#FFF" stroke="#DADADA" stroke-linecap="round" stroke-linejoin="round" d="M304.55-190.05q-1.5-1.45-3.55-1.45h-490q-2.1 0-3.55 1.45-1.45 1.5-1.45 3.55v12q0 2.1 1.45 3.55 1.45 1.45 3.55 1.45h490q2.05 0 3.55-1.45 1.45-1.45 1.45-3.55v-12q0-2.05-1.45-3.55"/><path fill="#FFBF2F" d="M-289.05-219.85q-.45 1.1-.45 2.35 0 1.2.45 2.3.45 1.1 1.3 1.9.8.85 1.9 1.3 1.1.5 2.35.5 2.45-.05 4.2-1.8 1.8-1.75 1.8-4.2-.05-2.5-1.8-4.25t-4.2-1.75q-1.25 0-2.35.45t-1.9 1.3q-.85.8-1.3 1.9"/><path fill="#28C940" d="M-264.5-223.5q-1.25 0-2.35.45t-1.9 1.3q-.85.8-1.3 1.9-.45 1.1-.45 2.35 0 1.2.45 2.3.45 1.1 1.3 1.9.8.85 1.9 1.3 1.1.5 2.35.5 2.45-.05 4.2-1.8 1.8-1.75 1.8-4.2-.05-2.5-1.8-4.25t-4.2-1.75"/><path fill="#9A99AA" d="M-173.1-182.65h-1.05l-1.1 4.65h-.05l-1.3-4.65h-1l1.8 5.7h1l1.15-4.5h.05l1.15 4.5h1l1.8-5.7h-.95l-1.3 4.65-1.2-4.65M-178-182.65h-.95l-1.3 4.65-1.2-4.65h-1.05l-1.1 4.65h-.05l-1.3-4.65h-1l1.8 5.7h1l1.15-4.5h.05l1.15 4.5h1l1.8-5.7M-165.3-181.45h.05l1.15 4.5h1l1.8-5.7h-.95l-1.3 4.65-1.2-4.65h-1.05l-1.1 4.65h-.05l-1.3-4.65h-1l1.8 5.7h1l1.15-4.5M-95.1-182.5q-.2.1-.4.3-.2.15-.35.4-.1-.25-.25-.45t-.35-.3q-.45-.2-.95-.2-.6 0-1.05.2-.5.25-.8.75v-.85h-.9v5.7h.95v-3.55q0-.15.05-.4.1-.25.3-.5.15-.2.45-.4.3-.15.7-.15.35 0 .55.1.2.1.3.25.15.2.15.4l.05.5v3.75h.95v-3.55q0-.65.4-1.05t1.1-.4q.35 0 .55.1.2.1.35.3.1.15.15.4l.05.45v3.75h.95v-4.15q0-.45-.15-.75-.15-.35-.4-.55-.25-.2-.6-.3-.35-.05-.75-.05-.55 0-1.05.25M-112-181.9q-.3.45-.5 1-.15.55-.15 1.2 0 .6.15 1.15.2.55.5.9.35.4.85.6.5.2 1.15.2.55 0 1-.1.4-.15.75-.45.3-.3.5-.7.2-.4.25-.95h-.95q-.1.7-.45 1.05-.4.35-1.1.35-.45 0-.75-.15-.35-.2-.55-.5-.2-.3-.25-.65-.1-.35-.1-.75 0-.45.05-.85.1-.4.3-.7.2-.3.55-.5.35-.2.85-.2.3 0 .55.1.25.05.4.2.2.15.3.35.1.2.15.5h1q-.05-.5-.3-.9-.2-.35-.5-.6-.35-.25-.75-.35-.45-.1-.9-.1-.7 0-1.2.2-.5.25-.85.65M-118.25-182.7q-.3-.05-.7-.05-.55 0-1.05.2t-.85.6q-.35.4-.55.95-.2.55-.2 1.2 0 .65.2 1.2.15.55.5.95.35.4.85.6.5.2 1.2.2.45 0 .85-.1.4-.1.75-.35.6-.5.8-1.45h-.9l-.2.5q-.15.2-.3.35-.4.25-1 .25-.45 0-.8-.15-.35-.15-.55-.4-.25-.25-.35-.6-.05-.35-.05-.7h4.25q0-.55-.1-1.1t-.4-1.05q-.3-.5-.8-.8-.25-.15-.6-.25m-1.4.9q.3-.15.65-.15.35 0 .65.15.3.1.5.3.25.25.35.55.15.3.15.6h-3.25q0-.3.15-.6.1-.3.3-.5.2-.25.5-.35M-115.2-178.15v1.2h1.25v-1.2h-1.25M-133.95-179.55v-.9h-3.2v.9h3.2M-131.95-181.2q0-.25.1-.35.1-.15.3-.25l.8-.15.45.05q.25.05.45.15l.3.3q.1.2.15.45h.9q0-.5-.2-.85t-.5-.55q-.3-.2-.7-.3-.45-.05-.9-.05-.4 0-.75.05-.4.1-.7.3-.3.2-.5.5t-.2.75q0 .55.3.85.25.3.65.5.45.15.9.25l.9.2q.45.1.7.3.3.2.3.55 0 .25-.15.45-.15.15-.35.25l-.9.15-.55-.05q-.25-.05-.5-.2-.2-.1-.35-.3-.1-.25-.1-.55h-.95q0 .55.2.9t.55.6q.3.2.75.3.45.1.9.1t.85-.05q.45-.1.8-.3.35-.2.55-.55.2-.35.2-.85 0-.4-.15-.7-.15-.25-.4-.45t-.6-.3l-1.95-.5q-.25-.1-.45-.25-.15-.2-.15-.4M-138.05-181.6q.4-.2.95-.2v-.95q-.75-.05-1.25.3-.25.15-.45.4t-.4.6v-1.2h-.9v5.7h.95v-2.55q0-.55.1-.95.15-.45.35-.7.25-.3.65-.45M-141.5-176.95v-5.7h-.9v3.2q0 .4-.15.75-.1.3-.3.55-.2.25-.5.35-.35.15-.75.15-.55 0-.85-.3-.15-.15-.25-.35-.05-.2-.05-.5v-3.85h-.95v3.75q0 .45.1.85.1.35.3.65.25.25.65.4.35.15.9.15.65 0 1.1-.25.45-.25.75-.75h.05v.9h.85M-123.45-182.65v-1.7h-.95v1.7h-.95v.85h.95v3.6q0 .4.1.65.05.25.25.35.15.15.4.2l1.35.05v-.85h-.8l-.2-.05q-.1-.05-.1-.15l-.05-.3v-3.5h1.15v-.85h-1.15M-126.2-183.65v-1.15h-.95v1.15h.95M-127.15-182.65v5.7h.95v-5.7h-.95M-153.3-182.65h-1l-1.55 4.65h-.05l-1.65-4.65h-1.05l2.25 5.65-.4.95q-.1.3-.3.4-.2.15-.45.15l-.3-.05-.25-.1v.9l.65.1q.3 0 .55-.1.2-.1.4-.25.2-.2.35-.5l.35-.7 2.45-6.45M-152.1-181.9q-.35.4-.55.95-.15.55-.15 1.15 0 .65.15 1.2.2.5.55.9.35.4.85.65.3.1.55.15l.65.05.65-.05q.3-.05.55-.15.5-.25.85-.65t.55-.9q.15-.55.15-1.2 0-.6-.15-1.15-.2-.55-.55-.95-.35-.4-.85-.65-.5-.2-1.2-.2-.65 0-1.2.2-.5.25-.85.65m.45 1.2q.1-.4.35-.7.25-.25.55-.4.35-.15.7-.15t.7.15q.3.15.55.4.25.3.4.7.15.4.15.9 0 .55-.15.95-.15.4-.4.65t-.55.4q-.35.15-.7.15t-.7-.15q-.3-.15-.55-.4-.25-.25-.35-.65-.15-.4-.15-.95 0-.5.15-.9M-160.85-176.95h1.25v-1.2h-1.25v1.2M-104-182.75q-.65 0-1.2.2-.5.25-.85.65t-.55.95q-.15.55-.15 1.15 0 .65.15 1.2.2.5.55.9.35.4.85.65.3.1.55.15l.65.05.65-.05q.3-.05.55-.15.5-.25.85-.65t.55-.9q.15-.55.15-1.2 0-.6-.15-1.15-.2-.55-.55-.95-.35-.4-.85-.65-.5-.2-1.2-.2m0 .8q.35 0 .7.15.3.15.55.4.25.3.4.7.15.4.15.9 0 .55-.15.95-.15.4-.4.65t-.55.4q-.35.15-.7.15t-.7-.15q-.3-.15-.55-.4-.25-.25-.35-.65-.15-.4-.15-.95 0-.5.15-.9.1-.4.35-.7.25-.25.55-.4.35-.15.7-.15"/><path fill="#FF6259" d="M-306.75-221.75q-.85.8-1.3 1.9-.45 1.1-.45 2.35 0 1.2.45 2.3.45 1.1 1.3 1.9.8.85 1.9 1.3 1.1.5 2.35.5 2.45-.05 4.2-1.8 1.8-1.75 1.8-4.2-.05-2.5-1.8-4.25t-4.2-1.75q-1.25 0-2.35.45t-1.9 1.3"/><path fill="#B9BDC6" d="M-217.6-174.5v-6h2.75l-7.75-7.85-8 7.85h3v6h4v-4h2v4h4M-247.6-188.5l-2.15 2.15q-1.8-2.05-4.55-2.15h-.3q-2.9 0-4.95 2.05-2.05 2.05-2.05 4.95 0 2.95 2.05 4.95 2.05 2.05 4.95 2.05h.3q2.1-.1 3.85-1.4 1.8-1.4 2.5-3.6h-1.9q-.55 1.45-1.85 2.35-1.2.8-2.6.9h-.3q-2.15 0-3.7-1.55-1.55-1.5-1.55-3.7 0-2.15 1.55-3.7 1.55-1.55 3.7-1.55h.3q1.85.1 3.35 1.6l-2.8 2.65h6.1l.05-6M-278.25-180.9q.25-.2.25-.55 0-.35-.25-.6l-6.35-6.2q-.6-.5-1.2 0-.2.25-.2.6t.2.55l5.8 5.6-5.8 5.65q-.55.55 0 1.15.2.2.6.2.4 0 .6-.2l6.35-6.2M-300-187.65q0-.35-.25-.6-.6-.5-1.2 0l-6.35 6.2q-.2.25-.2.6t.2.55l6.35 6.2q.2.2.6.2.4 0 .6-.2.55-.6 0-1.15l-5.75-5.65 5.75-5.6q.25-.2.25-.55"/></symbol></defs><g id="Scene_1_l1" overflow="visible"><g><use xlink:href="#browser" transform="translate(318.5 233.5)"/><animate attributeName="display" begin="Scene_1_l1.start" repeatCount="1" dur="9.419s" keyTimes="0;1" values="inline;none"/></g><g><g id="CTA" transform="translate(317.5 342)" opacity="0"><animateTransform attributeName="transform" additive="replace" type="translate" begin="Scene_1_l1.start" dur="9.419s" keyTimes="0;0.178;0.223;0.329;0.33;0.336;0.337;0.921;0.949;1" values="317.5,274;317.5,274;317.5,296;317.5,296;317.5,297.3;317.5,297.3;317.5,296;317.5,296;317.5,342;317.5,342" keySplines="0 0.274 0.344 0.928;0 0.274 0.344 0.928;.1 .1 .9 .9;.1 .1 .9 .9;.1 .1 .9 .9;.1 .1 .9 .9;.1 .1 .9 .9;.25 .5 .5 1;.1 .1 .9 .9" calcMode="spline"/><animate attributeName="opacity" begin="Scene_1_l1.start" dur="9.419s" keyTimes="0;0.178;0.223;0.288;0.289;0.921;0.949;1" values="0;0;0.98;0.98;1;1;0;0" keySplines="0 0.274 0.344 0.928;0 0.274 0.344 0.928;.1 .1 .9 .9;.1 .1 .9 .9;.1 .1 .9 .9;.25 .5 .5 1;.1 .1 .9 .9" calcMode="spline"/><path fill="#FFF" d="M120-20.5q0-2.65-1.85-4.6-1.8-1.9-4.4-1.9H-113.8q-2.6 0-4.4 1.9-1.8 1.95-1.8 4.6v41.05q0 2.65 1.8 4.55t4.4 1.9h227.55q2.6 0 4.4-1.9 1.85-1.9 1.85-4.55V-20.5"/><path fill="#F26641" d="M-89.65-16.6q-1-.6-2.05 0l-16.6 8.4q-1 .65-1 2.1V6.15q0 1.45 1 2.1l16.6 8.4q.45.25 1.05.25.6 0 1-.25l16.35-8.4q.4-.25.7-.85.3-.65.3-1.25V-6.1q0-1.4-1-2.1l-16.35-8.4"/><path fill="#FFF" d="M-88-7v1.7q-1.05-1.25-2.05-1.7-1.1-.45-3.1-.45-1.55 0-2.85.6-1.2.55-2.25 1.65-.95 1.2-1.4 2.45-.5 1.5-.5 2.9 0 1.45.5 2.95.45 1.25 1.4 2.45.9 1 2.25 1.65 1.3.6 2.85.6 1.6 0 2.85-.6 1.3-.7 2.1-2 .55 1.2 1.5 1.85 1 .75 2.2.75 1.1 0 1.9-.2l.6-.3V3.8l-.65.1q-.55 0-.95-.35-.4-.35-.4-1V-7h-4m-4.3 3.2q1.55 0 2.6 1.2 1.05 1.15 1.05 2.8 0 1.7-1.05 2.85-1.05 1.2-2.6 1.2t-2.6-1.2Q-96 1.9-96 .2q0-1.65 1.1-2.8 1.05-1.2 2.6-1.2"/><path fill="#444" d="M-59.9-6.65q-2.1 0-3.4 1.1-1.15 1-1.15 2.5 0 2.55 3.25 3.4 3.2.9 3.2 1.3 0 .95-1.65.95-2.1 0-3.6-1.5l-1.55 2.2q1.95 1.8 5.05 1.8 2.25 0 3.5-1.05 1.2-1 1.2-2.75 0-2.45-3.2-3.35-3.2-.85-3.2-1.25 0-.85 1.2-.85 1.95 0 3.35 1.2l1.6-2.1q-1.85-1.6-4.6-1.6M-53.95-5.6q0 .65.45 1.1.45.45 1.05.45.65 0 1.05-.45.45-.45.45-1.1 0-.6-.45-1-.4-.45-1.05-.45-.6 0-1.05.45-.45.4-.45 1M-53.75 4.9h2.6v-8.25h-2.6V4.9M-48.7-2.5q-1.05 1.15-1.05 3.1 0 2 1.05 3.1 1 1.05 2.55 1.05 1.4 0 2.45-1.2v.65q0 1.85-2.1 1.85-1.7 0-2.5-.95L-49.45 7q1.5 1.2 3.65 1.2 4.7 0 4.7-4.05v-7.5h-2.6v1q-1-1.2-2.45-1.2-1.6 0-2.55 1.05m5 4.2q-.6.75-1.6.75-.8 0-1.25-.45-.55-.55-.55-1.4 0-.85.55-1.35.45-.5 1.25-.5 1 0 1.6.75v2.2M-35-1.25q1.35 0 1.35 1.4V4.9H-31V-.95q0-2.6-2.75-2.6-1.75 0-2.85 1.2v-1h-2.6V4.9h2.6V-.45q.8-.8 1.6-.8M-24.95-5.6q0 .65.45 1.1.4.45 1.05.45t1.05-.45q.45-.45.45-1.1 0-.6-.45-1-.4-.45-1.05-.45t-1.05.45q-.45.4-.45 1M-24.75 4.9h2.6v-8.25h-2.6V4.9M-17.6-2.35v-1h-2.65V4.9h2.65V-.45q.7-.8 1.55-.8 1.35 0 1.35 1.4V4.9h2.65V-.95q0-2.6-2.75-2.6-1.8 0-2.8 1.2M4.3 4.9l2.4-8.25H4L2.7 1.7 1.1-3.35h-2.35l-1.6 5.05-1.35-5.05h-2.65l2.4 8.25h2.85L-.1-.2l1.55 5.1H4.3M7.4-5.6q0 .65.45 1.1.4.45 1.05.45.6 0 1.05-.45.4-.45.4-1.1 0-.6-.4-1-.45-.45-1.05-.45-.65 0-1.05.45-.45.4-.45 1M7.55 4.9h2.65v-8.25H7.55V4.9M12.65-3.35H11.3v2.3h1.35v3.7q0 2.45 2.55 2.45 1.3 0 1.95-.55l-.5-2q-.2.2-.7.2-.7 0-.7-.8v-3h1.65v-2.3h-1.65V-5.6h-2.6v2.25M20.85-6.45h-2.6V4.9h2.6V-.45q.7-.8 1.6-.8 1.35 0 1.35 1.35v4.8h2.6V-.95q0-2.6-2.7-2.6-1.75 0-2.85 1.2v-4.1M39.45-6.45H35.8L31.5 4.9h3.35l.55-1.65h4.45l.6 1.65h3.3l-4.3-11.35M39.05.7H36.2l1.4-4.25L39.05.7M52.45-3.35H49.8v5.3q-.6.8-1.55.8-1.35 0-1.35-1.3v-4.8h-2.65V2.5q0 2.6 2.7 2.6 1.75 0 2.85-1.2v1h2.65v-8.25M57.5-5.6h-2.6v2.25h-1.4v2.3h1.4v3.7q0 2.45 2.55 2.45 1.3 0 1.95-.55l-.55-2q-.1.2-.65.2-.7 0-.7-.8v-3h1.65v-2.3H57.5V-5.6M63.1-2.35v-4.1h-2.65V4.9h2.65V-.45q.7-.8 1.55-.8 1.4 0 1.4 1.35v4.8h2.6V-.95q0-2.6-2.7-2.6-1.75 0-2.85 1.2M70 .75q0 2 1.3 3.2 1.25 1.15 3.2 1.15 2.1 0 3.45-1.1l-1.1-1.65q-.8.7-2.05.7-.85 0-1.4-.45-.55-.4-.65-1h5.85v-.55q0-2.05-1.2-3.35-1.15-1.25-3-1.25-1.9 0-3.15 1.25T70 .75m4.4-2.25q1.45 0 1.7 1.4h-3.4q.25-1.4 1.7-1.4M85.45 4.9h2.6V-.95q0-2.6-2.7-2.6-1.75 0-2.85 1.2v-1h-2.65V4.9h2.65V-.45q.7-.8 1.6-.8 1.35 0 1.35 1.4V4.9M93.1-5.6h-2.6v2.25h-1.35v2.3h1.35v3.7q0 2.45 2.55 2.45 1.4 0 1.95-.55l-.5-2q-.2.2-.65.2-.75 0-.75-.8v-3h1.65v-2.3H93.1V-5.6M95.9-5.6q0 .65.45 1.1.4.45 1.05.45.6 0 1.05-.45.4-.45.4-1.1 0-.6-.4-1-.45-.45-1.05-.45-.65 0-1.05.45-.45.4-.45 1M96.05 4.9h2.65v-8.25h-2.65V4.9M100.05.75q0 2.05 1.05 3.25.95 1.1 2.55 1.1 1.4 0 2.45-1.2V8h2.6V-3.35h-2.6v.95q-1-1.15-2.45-1.15-1.6 0-2.55 1.1-1.05 1.2-1.05 3.2m3.2 1.45q-.55-.55-.55-1.45 0-.9.55-1.45.5-.55 1.3-.55.9 0 1.55.75V2q-.5.75-1.55.75-.8 0-1.3-.55"/></g><animate attributeName="display" begin="Scene_1_l1.start" repeatCount="1" dur="9.419s" keyTimes="0;0.178;1" values="none;inline;none"/></g><g><g id="header" transform="translate(318.5 121)" opacity="0"><animate attributeName="opacity" begin="Scene_1_l1.start" dur="9.419s" keyTimes="0;0.086;0.137;0.914;0.949;1" values="0;0;1;1;0;0" keySplines=".25 .5 .5 1;.25 .5 .5 1;.1 .1 .9 .9;.25 .5 .5 1;.1 .1 .9 .9" calcMode="spline"/><path fill="#4A495A" d="M318.5 47v-94h-637v94h637"/><path fill="#9C9CAC" d="M-279.9-9.85h-2.2v5.65h-6.9v-5.65h-2.2V3.2h2.2v-5.4h6.9v5.4h2.2V-9.85M-272.55-6.8q-2.2.05-3.6 1.4-1.4 1.4-1.4 3.65t1.4 3.65q1.35 1.35 3.65 1.35 2.6 0 4.1-1.65l-1.15-1.25q-1.1 1.2-2.8 1.2-1.15 0-1.95-.65-.85-.7-1.1-1.85h7.5q.4-5.85-4.65-5.85m-2.9 4.3q.2-1.2.95-1.9.8-.7 1.95-.7 1.25 0 2 .7.7.7.75 1.9h-5.65M-263.45-10.6h-2.15V3.2h2.15v-13.8M-257.95-10.6h-2.15V3.2h2.15v-13.8M-246.75-5.4q-1.4-1.4-3.7-1.4-2.3 0-3.75 1.4-1.45 1.4-1.45 3.65 0 2.2 1.45 3.6t3.75 1.4q2.3 0 3.7-1.4 1.45-1.4 1.45-3.6 0-2.25-1.45-3.65m-3.7.45q1.3 0 2.15.9.85.9.85 2.3t-.85 2.3q-.85.9-2.15.9-1.35 0-2.2-.9-.85-.9-.85-2.3t.85-2.3q.85-.9 2.2-.9M-231.85-5.8q-1.4-1-3.5-1-1.55 0-2.55.7-1.1.75-1.1 2.15 0 2 2.6 2.85 2.6.8 2.6 1.6 0 1.1-1.6 1.1-1.9 0-3.3-1.25l-.8 1.55q1.6 1.35 4 1.35 1.6 0 2.65-.7 1.15-.8 1.15-2.25 0-2-2.6-2.85-2.65-.85-2.65-1.55 0-1 1.45-1 1.4 0 2.85.9l.8-1.6M-230.55-6.35v1.6h1.4V.4q0 1.4.85 2.2.75.7 1.9.7 1.1 0 2.45-.75L-224.5.9q-.8.45-1.5.45-1.05 0-1.05-1.35v-4.75h2.95v-1.6h-2.95v-2.7h-2.1v2.7h-1.4M-219.85-4.75V-6.7H-222v9.9h2.15V-2q.15-1.3 1.05-2.05.95-.75 2.4-.7V-6.8q-2.4 0-3.45 2.05M-213.35-6.45q-.75.25-1.95.9l.9 1.5q1.55-1 2.9-1 2.35 0 2.35 2v.3h-2.95q-1.8 0-2.75.8-1 .8-1 2.15 0 1.35.95 2.2.95.9 2.5.9 2.25 0 3.3-1.35V3.2h2.1v-6.5q-.05-1.65-1.05-2.55-1.05-.95-2.95-.95-1.3 0-2.35.35m3.35 7.5q-.8.55-1.95.55-.85 0-1.4-.4-.5-.4-.5-1.1 0-1.3 2.05-1.3h2.65v.9q-.05.85-.85 1.35M-202-6.7h-2.15v9.9h2.15v-5.3q.1-1.15.85-1.9t1.95-.8q1.1 0 1.75.65.65.65.65 1.75v5.6h2.15v-6.15q0-1.8-1-2.8-.95-1.05-2.7-1.05-2.65 0-3.65 2v-1.9M-182.9-6.7h-2.1v1.6q-1.1-1.7-3.35-1.7-1.95.05-3.15 1.35-1.25 1.3-1.25 3.35 0 2.15 1.25 3.45 1.25 1.35 3.25 1.35 2.25 0 3.25-1.65v1.2q0 1.3-.85 2.1-.85.75-2.25.75-1.7 0-3.1-1.1l-.95 1.55q2.05 1.3 4.15 1.3 2.35 0 3.7-1.25 1.4-1.25 1.4-3.4v-8.9m-7 2.5q.8-.85 2.05-.85 1.25 0 2.05.85.8.85.8 2.15 0 1.35-.8 2.25-.8.85-2.05.85-1.25 0-2.05-.85-.8-.9-.85-2.25.05-1.3.85-2.15M-175.85-6.8q-2.2.05-3.6 1.4-1.4 1.4-1.4 3.65t1.4 3.65q1.35 1.35 3.65 1.35 2.6 0 4.1-1.65l-1.1-1.25q-1.2 1.2-2.8 1.2-1.15 0-2-.65-.85-.7-1.1-1.85h7.5q.4-5.85-4.65-5.85m-2.85 4.3q.2-1.2.95-1.9t1.95-.7q1.2 0 1.95.7t.8 1.9h-5.65M-166.85-4.75V-6.7h-2.1v9.9h2.1V-2q.15-1.3 1.05-2.05.95-.75 2.4-.7V-6.8q-2.4 0-3.45 2.05M-160-9.65h-2l.3 8.7h1.4l.3-8.7M-159.8 2.1q0-.5-.35-.85-.3-.35-.85-.35-.5 0-.8.35-.35.35-.35.85 0 .55.35.9.3.35.8.35 1.2 0 1.2-1.25M-143.95-8.6q-2.1-1.35-4.6-1.35-2.1 0-3.4 1-1.3 1-1.3 2.65 0 2.55 3.5 3.6 3.5 1.05 3.5 2.3 0 1.6-2.45 1.6-2.25 0-4.4-1.9l-.95 1.9q2.3 2.05 5.35 2.05 2.15 0 3.5-1 1.4-1.05 1.4-2.75 0-2.6-3.5-3.7t-3.5-2.3q0-1.35 2.1-1.35 1.8 0 3.8 1.2l.95-1.95M-141.2-10.5q-.35.4-.35.95 0 .55.35.95.35.35.9.35t.9-.35q.35-.4.35-.95 0-.55-.35-.95-.35-.35-.9-.35t-.9.35M-139.25-6.7h-2.1v9.9h2.1v-9.9M-132.6-6.8q-2 .05-3.2 1.35-1.2 1.3-1.2 3.35 0 2.15 1.2 3.45 1.25 1.35 3.25 1.35 2.25 0 3.25-1.65v1.2q0 1.3-.85 2.1-.8.75-2.25.75-1.6 0-3.1-1.1l-.9 1.55q1.95 1.3 4.1 1.3 2.35 0 3.75-1.25t1.4-3.4v-8.9h-2.15v1.6q-1-1.7-3.3-1.7m-1.6 2.6q.85-.85 2.1-.85t2 .85q.8.85.8 2.15 0 1.35-.8 2.25-.75.85-2 .85-1.3 0-2.1-.85-.8-.9-.8-2.25 0-1.3.8-2.15M-122.05-6.7h-2.15v9.9h2.15v-5.3q.1-1.15.85-1.9.8-.75 1.95-.8 1.1 0 1.75.65.65.65.65 1.75v5.6h2.15v-6.15q0-1.8-1-2.8-.95-1.05-2.7-1.05-2.65 0-3.65 2v-1.9M-105.1-8.6q.35-.4.35-.95 0-.55-.35-.95-.35-.35-.9-.35t-.9.35q-.35.4-.35.95 0 .55.35.95.35.35.9.35t.9-.35M-104.95-6.7h-2.1v9.9h2.1v-9.9M-92.3-2.95q0-1.8-1-2.8-.95-1.05-2.7-1.05-2.6 0-3.65 2v-1.9h-2.1v9.9h2.1v-5.3q.1-1.15.85-1.9.8-.75 2-.8 1.1 0 1.7.65.65.65.65 1.75v5.6h2.15v-6.15M-82.15-9.05h-2.1v2.7h-1.4v1.6h1.4V.4q0 1.45.85 2.2.75.7 1.95.7 1.15 0 2.4-.75L-79.6.9q-.8.45-1.45.45-1.1 0-1.1-1.35v-4.75h2.95v-1.6h-2.95v-2.7M-69.25-5.4q-1.4-1.4-3.7-1.4-2.3 0-3.7 1.4Q-78.1-4-78.1-1.75q0 2.2 1.45 3.6 1.4 1.4 3.7 1.4 2.3 0 3.7-1.4 1.45-1.4 1.45-3.6 0-2.25-1.45-3.65m-3.7.45q1.35 0 2.2.9.85.9.85 2.3t-.85 2.3q-.85.9-2.2.9-1.3 0-2.15-.9-.85-.9-.85-2.3t.85-2.3q.85-.9 2.15-.9M-60.35-9.05v2.7h-1.4v1.6h1.4V.4q0 1.45.8 2.2.75.7 1.95.7 1.1 0 2.45-.75L-55.7.9q-.8.45-1.5.45-1.05 0-1.05-1.35v-4.75h2.95v-1.6h-2.95v-2.7h-2.1M-43.6-2.95q0-1.8-1-2.8-.95-1.05-2.7-1.05-2.6 0-3.65 2v-5.8h-2.15V3.2h2.15v-4.9q0-1.35.75-2.2.75-.85 2.05-.9 1.1 0 1.75.65.65.65.65 1.75v5.6h2.15v-6.15M-40.95-9.55q0 .55.35.95.35.35.9.35t.9-.35q.35-.4.35-.95 0-.55-.35-.95-.35-.35-.9-.35t-.9.35q-.35.4-.35.95M-38.6-6.7h-2.15v9.9h2.15v-9.9M-29.05-5.8q-1.4-1-3.45-1-1.55 0-2.55.7-1.1.75-1.1 2.15 0 2 2.6 2.85 2.6.8 2.6 1.6 0 1.1-1.65 1.1-.8 0-1.7-.35-.95-.35-1.6-.9l-.75 1.55q1.6 1.35 4 1.35 1.6 0 2.65-.7 1.15-.8 1.15-2.25 0-2-2.6-2.85-2.65-.85-2.65-1.55 0-1 1.45-1 1.4 0 2.85.9l.75-1.6M-6.8-6.7h-2.15l-2.55 7.75L-14-6.7h-2.25l-2.45 7.75-2.6-7.75h-2.2l3.65 9.9h2.2l2.5-7.35 2.55 7.35h2.2l3.6-9.9M2.1-5.2Q.9-6.8-1.6-6.8q-2.2.05-3.6 1.4Q-6.6-4-6.6-1.75t1.4 3.65q1.35 1.35 3.65 1.35 2.55 0 4.1-1.65L1.4.35q-1.1 1.2-2.8 1.2-1.15 0-1.95-.65-.85-.7-1.1-1.85H3q.25-2.75-.9-4.25m-6.6 2.7q.2-1.2.95-1.9.8-.7 1.95-.7 1.25 0 2 .7.7.7.75 1.9H-4.5M14.35-5.4q-1.3-1.4-3.4-1.4Q8.6-6.8 7.5-5v-5.6H5.35V3.2H7.5V1.45q1.1 1.8 3.5 1.8 2.1 0 3.4-1.35 1.25-1.4 1.25-3.65t-1.3-3.65M10.5-5q1.3 0 2.15.9.85.9.85 2.3 0 1.45-.85 2.35-.85.9-2.15.9-1.3 0-2.15-.9-.85-.9-.85-2.35 0-1.4.85-2.3Q9.2-5 10.5-5M20.85-6.8q-1.55 0-2.55.7-1.1.75-1.1 2.15 0 2 2.6 2.85 2.6.8 2.6 1.6 0 1.1-1.6 1.1-1.9 0-3.3-1.25l-.8 1.55q1.6 1.35 4 1.35 1.6 0 2.65-.7Q24.5 1.75 24.5.3q0-2-2.6-2.85-2.65-.85-2.65-1.55 0-1 1.45-1 1.4 0 2.85.9l.75-1.6q-1.3-1-3.45-1M26.8-10.5q-.35.4-.35.95 0 .55.35.95.35.35.9.35t.9-.35q.35-.4.35-.95 0-.55-.35-.95-.35-.35-.9-.35t-.9.35M28.75-6.7h-2.1v9.9h2.1v-9.9M30.9-6.35v1.6h1.4V.4q0 1.45.85 2.2.75.7 1.95.7 1.1 0 2.45-.75L37 .9q-.9.45-1.5.45-1.05 0-1.05-1.35v-4.75h2.9v-1.6h-2.9v-2.7H32.3v2.7h-1.4M43.45-6.8q-2.2.05-3.6 1.4-1.4 1.4-1.4 3.65t1.4 3.65q1.35 1.35 3.65 1.35 2.6 0 4.1-1.65L46.45.35q-1.1 1.2-2.75 1.2-1.2 0-2-.65-.85-.7-1.1-1.85h7.5q.4-5.85-4.65-5.85M40.6-2.5q.15-1.2.95-1.9.75-.7 1.95-.7t1.95.7q.75.7.8 1.9H40.6M56.95-6.7H54.8v6.15q0 1.75.95 2.8 1 1 2.7 1 2.55 0 3.5-2V3.2h2.15v-9.9h-2.15v4.85q0 1.35-.7 2.2-.75.85-2 .9-2.3 0-2.3-2.4V-6.7M73.7-5.8q-1.4-1-3.45-1-1.55 0-2.55.7-1.1.75-1.1 2.15-.05 2 2.55 2.85 2.6.8 2.6 1.6 0 1.1-1.6 1.1-1.9 0-3.3-1.25L66.1 1.9q1.5 1.35 3.95 1.35 1.6 0 2.65-.7 1.15-.8 1.15-2.25 0-2-2.6-2.85Q68.6-3.4 68.6-4.1q0-1 1.45-1t2.85.9l.8-1.6M77.95-8.6q.35-.4.35-.95 0-.55-.35-.95-.35-.35-.9-.35t-.9.35q-.35.4-.35.95 0 .55.35.95.35.35.9.35t.9-.35M78.15-6.7H76v9.9h2.15v-9.9M83.45-4.8v-1.9H81.3v9.9h2.15v-5.3q.1-1.15.85-1.9t1.95-.8q1.1 0 1.75.65.6.65.6 1.75v5.6h2.15v-6.15q0-1.8-.95-2.8-1-1.05-2.7-1.05-2.65 0-3.65 2M100.45-6.7v1.6q-1.1-1.7-3.35-1.7-2 .05-3.2 1.35-1.2 1.3-1.2 3.35 0 2.15 1.25 3.45 1.2 1.35 3.2 1.35 2.2 0 3.3-1.65v1.2q0 1.3-.85 2.1-.85.75-2.25.75-1.65 0-3.15-1.1l-.9 1.55q1.95 1.3 4.1 1.3 2.35 0 3.75-1.25t1.4-3.4v-8.9h-2.1M95.5-4.2q.85-.85 2.1-.85t2.05.85q.8.85.8 2.15 0 1.35-.8 2.25-.8.85-2.05.85-1.25 0-2.1-.85-.8-.9-.8-2.25 0-1.3.8-2.15M118.7-6.7h-2.1L113.8.8l-2.95-7.5h-2.2l4.1 9.75-.35.75q-.55 1.1-1.5 1.1-.6 0-1.3-.5l-.9 1.65q1.1.85 2.3.85 2.3 0 3.2-2.35l4.5-11.25M127.8-5.4q-1.45-1.4-3.75-1.4t-3.7 1.4Q118.9-4 118.9-1.75q0 2.2 1.45 3.6 1.4 1.4 3.7 1.4 2.3 0 3.75-1.4 1.45-1.4 1.45-3.6 0-2.25-1.45-3.65m-3.75.45q1.35 0 2.2.9.85.9.85 2.3t-.85 2.3q-.85.9-2.2.9-1.3 0-2.15-.9-.85-.9-.85-2.3t.85-2.3q.85-.9 2.15-.9M140.45-6.7h-2.15v4.85q0 1.35-.7 2.2-.75.85-2 .9-1.1 0-1.7-.65-.6-.6-.6-1.75V-6.7h-2.15v6.15q0 1.75.95 2.8.95 1 2.65 1 2.6 0 3.55-2V3.2h2.15v-9.9M145.75-4.75V-6.7h-2.15v9.9h2.15V-2q.1-1.3 1-2.05.95-.75 2.4-.7V-6.8q-2.4 0-3.4 2.05M160.6-4.8q1.1 0 1.7.65.65.65.65 1.75v5.6h2.1v-4.9q0-1.35.75-2.2.75-.85 2-.9 1.1 0 1.7.65.65.65.65 1.75v5.6h2.1v-6.15q0-1.8-.95-2.8-.95-1.05-2.65-1.05-2.9 0-3.75 2.4-.8-2.4-3.45-2.4-2.6 0-3.6 2v-1.9h-2.1v9.9h2.1v-4.9q0-1.35.75-2.2.75-.85 2-.9M179.35-6.8q-2.3 0-3.7 1.4-1.45 1.4-1.45 3.65 0 2.2 1.45 3.6 1.4 1.4 3.7 1.4 2.3 0 3.7-1.4 1.45-1.4 1.45-3.6 0-2.25-1.45-3.65-1.4-1.4-3.7-1.4m0 1.85q1.35 0 2.2.9.85.9.85 2.3t-.85 2.3q-.85.9-2.2.9-1.3 0-2.15-.9-.85-.9-.85-2.3t.85-2.3q.85-.9 2.15-.9M195.85-5.4q-1.3-1.4-3.4-1.4-2.35 0-3.45 1.8v-5.6h-2.15V3.2H189V1.45q1.1 1.8 3.5 1.8 2.1 0 3.4-1.35 1.25-1.4 1.25-3.65t-1.3-3.65M192-5q1.3 0 2.15.9.85.9.85 2.3 0 1.45-.85 2.35-.85.9-2.15.9-1.3 0-2.15-.9-.85-.9-.85-2.35 0-1.4.85-2.3.85-.9 2.15-.9M199.55-10.5q-.35.4-.35.95 0 .55.35.95.35.35.9.35t.9-.35q.35-.4.35-.95 0-.55-.35-.95-.35-.35-.9-.35t-.9.35M201.5-6.7h-2.1v9.9h2.1v-9.9M206.9-10.6h-2.1V3.2h2.1v-13.8M217.95-5.2q-1.2-1.6-3.7-1.6-2.2.05-3.6 1.4-1.4 1.4-1.4 3.65t1.4 3.65q1.35 1.35 3.65 1.35 2.6 0 4.1-1.65L217.25.35q-1.1 1.2-2.8 1.2-1.15 0-1.95-.65-.85-.7-1.1-1.85h7.5q.2-2.75-.95-4.25m-6.6 2.7q.2-1.2.95-1.9.8-.7 1.95-.7 1.25 0 2 .7.7.7.75 1.9h-5.65M235-5.4q-1.3-1.4-3.4-1.4-2.35 0-3.45 1.8v-1.7H226V6.8h2.15V1.45q1.1 1.8 3.5 1.8 2.1 0 3.4-1.35 1.25-1.4 1.25-3.65T235-5.4m-3.85.4q1.3 0 2.15.9.85.9.85 2.3 0 1.45-.85 2.35-.85.9-2.15.9-1.3 0-2.15-.9-.85-.9-.85-2.35 0-1.4.85-2.3.85-.9 2.15-.9M248.15-2.95q0-1.8-1-2.8-.95-1.05-2.7-1.05-2.6 0-3.65 2v-5.8h-2.15V3.2h2.15v-4.9q0-1.35.75-2.2.75-.85 2.05-.9 1.1 0 1.75.65.65.65.65 1.75v5.6h2.15v-6.15M258.95-5.4q-1.4-1.4-3.7-1.4-2.3 0-3.75 1.4-1.45 1.4-1.45 3.65 0 2.2 1.45 3.6t3.75 1.4q2.3 0 3.7-1.4 1.45-1.4 1.45-3.6 0-2.25-1.45-3.65m-3.7.45q1.3 0 2.15.9.85.9.85 2.3t-.85 2.3q-.85.9-2.15.9-1.35 0-2.2-.9-.85-.9-.85-2.3t.85-2.3q.85-.9 2.2-.9M272.1-2.95q0-1.8-1-2.8-.95-1.05-2.7-1.05-2.65 0-3.65 2v-1.9h-2.15v9.9h2.15v-5.3q.1-1.15.85-1.9.8-.75 1.95-.8 1.1 0 1.75.65.65.65.65 1.75v5.6h2.15v-6.15M282.75-5.2q-1.2-1.6-3.7-1.6-2.25.05-3.65 1.4Q274-4 274-1.75t1.4 3.65q1.4 1.35 3.7 1.35 2.55 0 4.1-1.65L282.05.35q-1.2 1.2-2.8 1.2-1.15 0-2-.65-.8-.7-1.05-1.85h7.45q.2-2.75-.9-4.25m-6.6 2.7q.2-1.2.95-1.9.8-.7 1.95-.7 1.2 0 1.95.7t.8 1.9h-5.65"/></g><animate attributeName="display" begin="Scene_1_l1.start" repeatCount="1" dur="9.419s" keyTimes="0;0.086;1" values="none;inline;none"/></g><g><g id="phone.swf" transform="translate(500.35 133.65)"><animateTransform attributeName="transform" additive="replace" type="translate" dur="9.419s" keyTimes="0;1" values="0,0;0,0" begin="Scene_1_l1.start"/><animateTransform attributeName="transform" additive="sum" type="translate" begin="Scene_1_l1.start" dur="3.806s" keyTimes="0;0.881;0.882;0.89;0.891;0.898;0.899;0.907;0.908;0.915;0.916;0.923;0.924;0.932;0.933;0.94;0.941;0.949;0.95;0.957;0.958;0.966;0.967;0.974;0.975;0.983;0.984;0.991;0.992;0.999;1" values="500.35,453.05;500.35,453.05;500.35,405.7;500.35,405.7;500.35,363.75;500.35,363.75;500.35,326.15;500.35,326.15;500.35,292.15;500.35,292.15;500.35,261.25;500.35,261.25;500.35,235.35;500.35,235.35;500.35,213.65;500.35,213.65;500.35,195.55;500.35,195.55;500.35,180.45;500.35,180.45;500.35,167.95;500.35,167.95;500.35,157.75;500.35,157.75;500.35,149.85;500.35,149.85;500.35,144.2;500.35,144.2;500.35,140.1;500.35,140.1;500.35,137.2" calcMode="discrete"/><animateTransform attributeName="transform" additive="sum" type="translate" begin="Scene_1_l1.start+3.806s" dur="5.613s" keyTimes="0;0.006;0.007;0.011;0.012;0.017;0.018000000000000002;0.023;0.024;1" values="500.35,137.2;500.35,137.2;500.35,135.25;500.35,135.25;500.35,134.1;500.35,134.1;500.35,133.55;500.35,133.55;500.35,133.65;500.35,133.65" calcMode="discrete"/><path fill="#CBCBCB" d="M2 142H0v16h2v-16M2 122v-16H0v16h2M2 85V63H0v22h2M183 2V0h-35v2h35"/><path fill="#FFF" d="M219 35.4q-.05-6.8-2.65-13-2.55-6-7.15-10.6-4.65-4.65-10.6-7.2Q192.4 2 185.65 2H35.3q-6.75 0-12.95 2.6-5.95 2.55-10.6 7.2-4.6 4.6-7.15 10.6Q2 28.6 2 35.4v387.15q0 6.8 2.6 13 2.55 6 7.15 10.6 4.65 4.65 10.6 7.2Q28.55 456 35.3 456h150.35q6.75-.05 12.95-2.65 5.95-2.55 10.6-7.2 4.6-4.6 7.15-10.6 2.65-6.2 2.65-13V35.4"/><path fill="#CBCBCB" d="M130.45 38.6q-.75-.6-1.85-.6H92.65q-1.05 0-1.8.75-.8.75-.8 1.85 0 1.05.8 1.7.7.7 1.8.7h35.95q1.05-.05 1.85-.8.75-.8.75-1.9 0-1.05-.75-1.7M113.5 20.25q-1.2-1.2-2.85-1.2-1.7 0-2.9 1.2-1.15 1.2-1.15 2.85 0 1.7 1.15 2.9 1.2 1.2 2.9 1.2 1.65 0 2.85-1.2 1.2-1.2 1.2-2.9 0-1.65-1.2-2.85M128.65 414.95q-1.5-3.5-4.2-6.25-2.7-2.7-6.2-4.2-3.65-1.55-7.6-1.55-4 0-7.6 1.55-3.55 1.5-6.25 4.2-2.7 2.75-4.2 6.25-1.5 3.65-1.5 7.6 0 4 1.5 7.65 1.5 3.5 4.2 6.25 2.7 2.7 6.25 4.2 3.6 1.55 7.6 1.55 3.95 0 7.6-1.55 3.5-1.5 6.2-4.2 2.7-2.75 4.2-6.25 1.55-3.65 1.55-7.65 0-3.95-1.55-7.6"/><path fill="#FFF" d="M126.25 415.95q-1.3-3.05-3.65-5.4-2.35-2.35-5.4-3.65-3.1-1.3-6.55-1.3-3.45 0-6.6 1.3-3.05 1.3-5.4 3.65-2.35 2.35-3.65 5.4-1.3 3.15-1.3 6.6 0 3.45 1.3 6.65 1.3 3.05 3.65 5.4 2.35 2.35 5.4 3.65 3.15 1.3 6.6 1.3 3.4 0 6.55-1.3 3.05-1.3 5.4-3.65 2.35-2.35 3.65-5.4 1.35-3.2 1.35-6.65 0-3.4-1.35-6.6"/><path fill="#5D5C73" d="M203 394V64H18v330h185"/></g><animate attributeName="display" begin="Scene_1_l1.start" repeatCount="1" dur="9.419s" keyTimes="0;0.353;1" values="none;inline;none"/></g><g><use xlink:href="#cursor" transform="translate(109.5 478.85)"/><animate attributeName="display" begin="Scene_1_l1.start" repeatCount="1" dur="9.419s" keyTimes="0;0.997;1" values="none;inline;none"/></g><g display="none"><use xlink:href="#cursor" transform="translate(113.95 475.4)"><animateTransform attributeName="transform" additive="replace" type="translate" dur="9.419s" keyTimes="0;1" values="0,0;0,0" begin="Scene_1_l1.start"/><animateTransform attributeName="transform" additive="sum" type="translate" begin="Scene_1_l1.start" dur="2.903s" keyTimes="0;0.844;0.845;0.855;0.856;0.866;0.867;0.877;0.878;0.889;0.89;0.9;0.901;0.911;0.912;0.922;0.923;0.933;0.934;0.944;0.945;0.955;0.956;0.966;0.967;0.977;0.978;0.989;0.99;0.999;1" values="370.3,491.5;370.3,491.5;362.45,466.2;362.45,466.2;355.5,443.8;355.5,443.8;349.3,423.75;349.3,423.75;343.7,405.6;343.7,405.6;338.6,389.1;338.6,389.1;334.3,375.3;334.3,375.3;330.7,363.7;330.7,363.7;327.7,354.05;327.7,354.05;325.2,345.95;325.2,345.95;323.15,339.3;323.15,339.3;321.45,333.85;321.45,333.85;320.15,329.65;320.15,329.65;319.2,326.6;319.2,326.6;318.55,324.4;318.55,324.4;318.05,322.85" calcMode="discrete"/><animateTransform attributeName="transform" additive="sum" type="translate" begin="Scene_1_l1.start+2.903s" dur="0.71s" keyTimes="0;0.044;0.045;0.09;0.091;0.135;0.136;0.18;0.182;0.544;0.545;0.59;0.591;0.635;0.636;0.68;0.682;0.726;0.727;0.771;0.773;0.817;0.818;0.862;0.864;0.908;0.909;0.953;0.955;0.999;1" values="318.05,322.85;318.05,322.85;317.75,321.85;317.75,321.85;317.55,321.2;317.55,321.2;317.45,320.95;317.45,320.95;317.5,321;317.5,321;243.55,377.05;243.55,377.05;214.2,399.35;214.2,399.35;193.35,415.15;193.35,415.15;176.1,428.25;176.1,428.25;162.3,438.75;162.3,438.75;151.1,447.25;151.1,447.25;142,454.15;142,454.15;134.2,460.05;134.2,460.05;127.35,465.3;127.35,465.3;121.75,469.5;121.75,469.5;117.35,472.85" calcMode="discrete"/><animateTransform attributeName="transform" additive="sum" type="translate" begin="Scene_1_l1.start+3.613s" dur="5.806s" keyTimes="0;0.005;0.006;1" values="117.35,472.85;117.35,472.85;113.95,475.4;113.95,475.4" calcMode="discrete"/></use><animate attributeName="display" begin="Scene_1_l1.start" repeatCount="1" dur="9.419s" keyTimes="0;0.257;0.39;1" values="none;inline;none;none"/></g><g><g id="Hello_Jane" transform="translate(271 153.95)"><animateTransform attributeName="transform" additive="replace" type="translate" dur="9.419s" keyTimes="0;1" values="0,0;0,0" begin="Scene_1_l1.start"/><animateTransform attributeName="transform" additive="sum" type="translate" begin="Scene_1_l1.start" dur="9.323s" keyTimes="0;0.951;0.952;0.955;0.956;0.958;0.959;0.962;0.963;0.965;0.966;0.969;0.97;0.972;0.973;0.976;0.977;0.979;0.98;0.983;0.984;0.986;0.987;0.99;0.991;0.993;0.994;0.996;0.997;0.999;1" values="271,82.95;271,82.95;271,95.25;271,95.25;271,106;271,106;271,115.45;271,115.45;271,123.9;271,123.9;271,131;271,131;271,136.7;271,136.7;271,141.3;271,141.3;271,145;271,145;271,147.9;271,147.9;271,150.15;271,150.15;271,151.65;271,151.65;271,152.65;271,152.65;271,153.35;271,153.35;271,153.75;271,153.75;271,153.95" calcMode="discrete"/><animateTransform attributeName="transform" additive="sum" type="translate" begin="Scene_1_l1.start+9.323s" dur="0.096s" keyTimes="0;1" values="271,153.95;271,153.95" calcMode="discrete"/><animate attributeName="opacity" begin="Scene_1_l1.start" dur="9.419s" keyTimes="0;0.942;0.943;0.945;0.946;0.949;0.95;0.952;0.953;0.955;0.956;0.959;0.96;0.962;0.963;0.966;0.967;0.969;0.97;0.973;0.974;0.976;0.977;0.979;0.98;0.983;0.984;0.986;0.987;1" values="0;0;0.17;0.17;0.33;0.33;0.46;0.46;0.58;0.58;0.68;0.68;0.76;0.76;0.82;0.82;0.87;0.87;0.92;0.92;0.95;0.95;0.97;0.97;0.98;0.98;0.99;0.99;1;1" calcMode="discrete"/><path fill="#F26640" d="M-218.35-4.6h-5.4v47.35h5.4V21.8h28.8v20.95h5.4V-4.6h-5.4v21.65h-28.8V-4.6M-143.95 12.55q-2.1-2.6-5.25-4-3.25-1.4-7.4-1.35-3.75 0-7.05 1.3-3.15 1.3-5.55 3.65-2.4 2.4-3.65 5.6-1.3 3.25-1.3 7.05 0 3.9 1.3 7.3 1.25 3.25 3.65 5.7 2.35 2.4 5.55 3.7 3.3 1.3 7.15 1.3 4.3 0 8-1.55 3.55-1.55 6.1-4.45l-2.9-3.1q-2.05 2.2-4.85 3.35-2.75 1.15-6 1.15-2.5 0-4.7-.8-2.15-.8-3.85-2.3-1.65-1.5-2.7-3.65-1.1-2.15-1.45-4.75h28.65q.25-4.35-.7-7.95-1-3.6-3.05-6.2m-.95 10.05h-23.95q.35-2.4 1.35-4.4 1-2 2.6-3.45 1.6-1.35 3.7-2.15 2.15-.75 4.6-.75 2.55 0 4.65.75 2.1.75 3.65 2.15 1.5 1.4 2.4 3.4.85 2.05 1 4.45M-125.55-7.4h-5.35v50.15h5.35V-7.4M-106.7-7.4h-5.35v50.15h5.35V-7.4M-65.75 12.1q-2.4-2.4-5.7-3.65-3.35-1.25-7.2-1.25-3.95 0-7.3 1.25-3.25 1.25-5.65 3.65-2.45 2.35-3.8 5.55-1.3 3.35-1.3 7.25 0 3.95 1.3 7.3 1.35 3.25 3.8 5.65 2.4 2.45 5.65 3.7 3.35 1.3 7.3 1.3 3.85 0 7.2-1.3 3.3-1.25 5.7-3.7 2.45-2.4 3.75-5.65 1.35-3.35 1.35-7.3 0-3.9-1.35-7.25-1.3-3.2-3.75-5.55m-1.2 7.55q.95 2.45.95 5.3 0 2.9-.95 5.35-.95 2.4-2.65 4.2-1.7 1.75-4 2.65-2.35 1-5.05 1-2.8 0-5.1-1-2.3-.9-4.05-2.65-1.7-1.8-2.65-4.2-.9-2.45-.9-5.35 0-2.85.9-5.3.95-2.35 2.65-4.15 1.75-1.75 4.05-2.7 2.3-.95 5.1-.95 2.7 0 5.05.95 2.3.95 4 2.7 1.7 1.8 2.65 4.15M-12.45-4.45h-22.4v4.8h16.9v27.9q0 4.4-2.05 6.7-2.1 2.3-6.05 2.3-2.75 0-5.45-1.4-2.7-1.45-4.9-4.1l-2.7 4.35q2.5 3.2 5.8 4.9 3.4 1.75 7.3 1.75 3.2 0 5.7-.95t4.25-2.8q1.75-1.85 2.7-4.5.9-2.7.9-6.1V-4.45M26.95 14.3q-.95-2.25-2.75-3.8-1.85-1.6-4.4-2.45-2.65-.85-5.95-.85-4.3 0-7.85 1.25-3 1.1-6.7 3.6l2.2 3.75q2.85-1.95 5.6-2.9 2.9-1.05 5.75-1.05 4.7 0 7.2 2.1 2.4 2.1 2.4 5.95v2H10.7q-3.2 0-5.65.75-2.45.65-4.15 2-1.75 1.3-2.6 3.15-.9 1.85-.9 4.25 0 2.25.85 4.2.8 1.95 2.4 3.45 1.6 1.5 3.8 2.3 2.25.8 5 .8 4.35 0 7.65-1.4 3.4-1.45 5.5-4.35v5.7H28l-.1-23.45q0-2.75-.95-5M2.2 31.75Q2.2 26 11.35 26h11.2v4.25q-1.05 3.7-4.3 5.8-3.25 2.15-7.8 2.15-1.85 0-3.4-.5-1.55-.4-2.6-1.3-1.1-.85-1.65-2-.6-1.25-.6-2.65M71.9 21q0-3.1-.9-5.7-.9-2.55-2.7-4.35-1.7-1.85-4.25-2.8-2.55-1-5.65-1-4.9.1-8.35 2.05-3.5 2.1-5.35 6.1V7.25h-5.35v35.5h5.35V23.7q.25-2.45 1.15-4.5.9-2.05 2.4-3.5 1.55-1.5 3.6-2.3 2.15-.85 4.7-.85 4.7 0 7.35 2.6 2.7 2.6 2.7 7.3v20.3h5.3V21M110.75 12.55q-2.1-2.6-5.25-4-3.25-1.4-7.4-1.35-3.75 0-7.05 1.3-3.15 1.3-5.55 3.65-2.4 2.4-3.7 5.6-1.25 3.25-1.25 7.05 0 3.9 1.25 7.3 1.3 3.25 3.7 5.7 2.35 2.4 5.55 3.7 3.3 1.3 7.15 1.3 4.3 0 8-1.55 3.55-1.55 6.1-4.45l-2.9-3.1q-2.05 2.2-4.85 3.35-2.75 1.15-6 1.15-2.5 0-4.7-.8-2.15-.8-3.85-2.3-1.65-1.5-2.7-3.65-1.1-2.15-1.45-4.75h28.65q.2-4.35-.7-7.95-1-3.6-3.05-6.2m-.95 10.05H85.85q.35-2.4 1.35-4.4 1-2 2.6-3.45 1.6-1.35 3.7-2.15 2.15-.75 4.6-.75 2.55 0 4.65.75 2.1.75 3.65 2.15 1.5 1.4 2.4 3.4.85 2.05 1 4.45M127.75-3.55h-5.35V7.9l.75 20.85h3.75l.85-20.85V-3.55M121.65 40q0 1.45.85 2.45.9.95 2.2.95 1.35 0 2.25-.95.85-1 .85-2.45 0-1.5-.85-2.5-.9-.95-2.25-.95-1.3 0-2.2.95-.85 1-.85 2.5"/></g><animate attributeName="display" begin="Scene_1_l1.start" repeatCount="1" dur="9.419s" keyTimes="0;0.938;1" values="none;inline;none"/></g><g mask="url(#mask_)" display="none"><g id="push" transform="translate(794.35 298.5)"><animateTransform attributeName="transform" additive="replace" type="translate" begin="Scene_1_l1.start" dur="9.419s" keyTimes="0;0.671;0.672;0.675;0.676;0.678;0.679;0.681;0.682;0.685;0.686;0.688;0.689;0.692;0.693;0.695;0.696;0.699;0.7;0.702;0.703;0.705;0.706;1" values="610.35,298.5;610.35,298.5;655.45,298.5;655.45,298.5;692.55,298.5;692.55,298.5;723.7,298.5;723.7,298.5;747.15,298.5;747.15,298.5;764.4,298.5;764.4,298.5;776.85,298.5;776.85,298.5;785.3,298.5;785.3,298.5;790.25,298.5;790.25,298.5;792.95,298.5;792.95,298.5;794.2,298.5;794.2,298.5;794.35,298.5;794.35,298.5" calcMode="discrete"/><animate attributeName="opacity" begin="Scene_1_l1.start" dur="9.419s" keyTimes="0;0.483;0.484;0.486;0.487;0.49;0.491;0.493;0.494;0.496;0.497;0.5;0.501;0.503;0.504;1" values="0;0;0.33;0.33;0.58;0.58;0.76;0.76;0.87;0.87;0.95;0.95;0.98;0.98;1;1" calcMode="discrete"/><path fill="#868999" d="M88.5-17.7v-.8H-87.4v.8H88.5"/><path fill="#FFF" d="M-86.85-11.9q-.55.6-.55 1.4V2.2q0 .8.55 1.4.55.6 1.35.6h12.85q.8 0 1.35-.6.6-.6.6-1.4v-12.7q0-.8-.6-1.4-.55-.6-1.35-.6H-85.5q-.8 0-1.35.6"/><path fill="#868999" d="M-63.95-11.85v5.65h43.65v-5.65h-43.65M-88.45 17.75v.8h175.9v-.8h-175.9M44.95 1.4v-3.85h-108.9V1.4h108.9"/><path fill="#F26641" d="M-84.65-2.25q0 .45.3.65l5.1 2.6q.15.05.35.05.2 0 .3-.05l5.05-2.6q.15-.1.25-.25.05-.2.05-.4v-3.8q0-.45-.3-.65l-5.05-2.6q-.3-.2-.65 0l-5.1 2.6q-.3.2-.3.65v3.8"/><path fill="#FFF" d="M-81.4-5.75q-.3.35-.4.75-.15.45-.15.9t.15.9q.1.4.4.75.3.3.7.5.4.2.9.2t.85-.2q.45-.2.65-.6.2.35.5.55.3.25.65.25.35 0 .6-.05l.2-.1V-3l-.2.05q-.2 0-.3-.1-.15-.1-.15-.3v-3h-1.2v.55q-.35-.4-.65-.55-.35-.1-.95-.1-.5 0-.9.15-.35.2-.7.55"/><path fill="#F26641" d="M-78.75-4.95q-.3-.4-.8-.4-.45 0-.8.4-.35.35-.35.85 0 .55.35.9t.8.35q.5 0 .8-.35.35-.35.35-.9 0-.5-.35-.85"/></g><animate attributeName="display" begin="Scene_1_l1.start" repeatCount="1" dur="9.419s" keyTimes="0;0.479;0.709;1" values="none;inline;none;none"/></g><g mask="url(#mask_)" display="none"><g id="consent" transform="translate(610.75 325.15)"><animateTransform attributeName="transform" additive="replace" type="translate" begin="Scene_1_l1.start" dur="9.419s" keyTimes="0;0.671;0.672;0.675;0.676;0.678;0.679;0.681;0.682;0.685;0.686;0.688;0.689;0.692;0.693;0.695;0.696;0.699;0.7;0.702;0.703;0.705;0.706;0.709;0.71;0.757;0.832;1" values="425.65,363.15;425.65,363.15;467.55,363.15;467.55,363.15;502.6,363.15;502.6,363.15;532.45,363.15;532.45,363.15;556.2,363.15;556.2,363.15;574.05,363.15;574.05,363.15;587.4,363.15;587.4,363.15;597.2,363.15;597.2,363.15;603.65,363.15;603.65,363.15;607.45,363.15;607.45,363.15;609.65,363.15;609.65,363.15;610.65,363.15;610.65,363.15;610.75,363.15;610.75,363.15;610.75,325.15;610.75,325.15" keySplines=".1 .1 .9 .9;.1 .1 .9 .9;.1 .1 .9 .9;.1 .1 .9 .9;.1 .1 .9 .9;.1 .1 .9 .9;.1 .1 .9 .9;.1 .1 .9 .9;.1 .1 .9 .9;.1 .1 .9 .9;.1 .1 .9 .9;.1 .1 .9 .9;.1 .1 .9 .9;.1 .1 .9 .9;.1 .1 .9 .9;.1 .1 .9 .9;.1 .1 .9 .9;.1 .1 .9 .9;.1 .1 .9 .9;.1 .1 .9 .9;.1 .1 .9 .9;.1 .1 .9 .9;.1 .1 .9 .9;.1 .1 .9 .9;.1 .1 .9 .9;.25 .5 .5 1;.1 .1 .9 .9" calcMode="spline"/><path fill="#FFF" d="M92.6 164.45V-165h-185v329.45h185"/><path fill="#E7E5E9" d="M92.6 16.6V-7.05h-185V16.6h185"/><path fill="#895FC0" d="M92.6 164.45v-98h-185v98h185"/><path fill="#E7E5E9" d="M92.6 66.45v-24.5h-185v24.5h185"/><path fill="#F9F9F9" d="M92.6 41.95V16.6h-185v25.35h185"/><path fill="#895FC0" d="M84.45 26.65q-.5-1.25-1.5-2.15-.9-.95-2.15-1.45t-2.65-.5H65.6q-1.4 0-2.65.5T60.8 24.5q-1 .95-1.5 2.15-.5 1.25-.5 2.65 0 1.35.5 2.6.5 1.2 1.5 2.15.9.95 2.15 1.45 1.25.55 2.65.55h12.55q1.4-.05 2.65-.55t2.15-1.45q1-.95 1.5-2.15.55-1.25.55-2.6-.05-1.4-.55-2.65"/><path fill="#ACB3B6" d="M-29.05 31.8v-5.9H-83.1v5.9h54.05"/><path fill="#FFF" d="M81.8 32.85q1.5-1.5 1.5-3.55-.05-2.1-1.5-3.6-1.5-1.5-3.55-1.5-1.05 0-2 .4t-1.6 1.1q-.7.7-1.1 1.6-.4.95-.4 2 0 1 .4 1.95.4.9 1.1 1.6.65.7 1.6 1.1.95.4 2 .4 2.05-.05 3.55-1.5"/><path fill="#F9F9F9" d="M92.6-82.2v-25.35h-185v25.35h185"/><path fill="#895FC0" d="M80.85-97.4l-3.95 4.1-2.15-2.25-.95 1 2.95 3.1.15-.15.1.15 4.8-5-.95-.95"/><path fill="#ACB3B6" d="M-83.1-98.25v5.9h72.65v-5.9H-83.1"/><path fill="#F9F9F9" d="M92.6-33.2v-25.35h-185v25.35h185"/><path fill="#ACB3B6" d="M-83.1-49.25v5.9h57.45v-5.9H-83.1"/><path fill="#E7E5E9" d="M92.6-32.4v-.8h-185v.8h185"/><path fill="#F9F9F9" d="M92.6-7.05V-32.4h-185v25.35h185"/><path fill="#895FC0" d="M80.85-22.25l-3.95 4.1-2.15-2.25-.95 1.05 2.95 3.05.15-.1.1.1 4.8-4.95-.95-1"/><path fill="#ACB3B6" d="M-83.1-23.1v5.95h72.65v-5.95H-83.1"/><path fill="#E7E5E9" d="M92.6-58.55V-82.2h-185v23.65h185"/><path fill="#F26641" d="M92.6-131.2V-165h-185v33.8h185"/><path fill="#E7E5E9" d="M92.6-107.55v-23.65h-185v23.65h185"/><path fill="#FFF" d="M54 101.05v-11.5H-53.15v11.5H54"/></g><animate attributeName="display" begin="Scene_1_l1.start" repeatCount="1" dur="9.419s" keyTimes="0;0.668;0.932;1" values="none;inline;none;none"/></g><g mask="url(#mask_)"><g display="none"><use xlink:href="#swipe_hand" transform="matrix(1.19 0 0 1.19 612 507.5)"><animateTransform attributeName="transform" additive="replace" type="translate" begin="Scene_1_l1.start" dur="9.419s" keyTimes="0;0.805;0.863;0.877;0.897;1" values="612,507.5;612,507.5;612,439.5;612,439.5;612,507.5;612,507.5" keySplines=".25 .5 .5 1;.25 .5 .5 1;.1 .1 .9 .9;.5 0 .75 .5;.1 .1 .9 .9" calcMode="spline"/><animateTransform attributeName="transform" additive="sum" type="scale" begin="Scene_1_l1.start" dur="9.419s" keyTimes="0;1" values="1.191,1.19;1.191,1.19" keySplines=".25 .5 .5 1" calcMode="spline"/></use><animate attributeName="display" begin="Scene_1_l1.start" repeatCount="1" dur="9.419s" keyTimes="0;0.805;0.901;1" values="none;inline;none;none"/></g><g display="none"><use xlink:href="#swipe_hand" transform="matrix(1.19 0 0 1.19 752.9 334.25)"><animateTransform attributeName="transform" additive="replace" type="translate" dur="9.419s" keyTimes="0;1" values="0,0;0,0" begin="Scene_1_l1.start"/><animateTransform attributeName="transform" additive="sum" type="translate" begin="Scene_1_l1.start" dur="6.323s" keyTimes="0;0.867;0.868;0.872;0.873;0.877;0.878;0.882;0.883;0.888;0.889;0.893;0.894;0.898;0.899;0.903;0.904;0.908;0.909;0.913;0.914;0.918;0.919;0.923;0.924;0.928;0.929;0.934;0.935;0.999;1" values="647.965,499.239;647.965,499.239;647.945,499.207;647.945,499.207;647.901,499.177;647.901,499.177;647.991,499.211;647.991,499.211;647.95,499.241;647.95,499.241;647.975,499.233;647.975,499.233;647.914,499.342;647.914,499.342;647.944,499.278;647.944,499.278;647.953,499.308;647.953,499.308;647.953,499.221;647.953,499.221;647.898,499.221;647.898,499.221;647.891,499.241;647.891,499.241;647.99,499.242;647.99,499.242;647.924,499.284;647.924,499.284;568.94,334.25;568.94,334.25;568.863,334.25" calcMode="discrete"/><animateTransform attributeName="transform" additive="sum" type="translate" begin="Scene_1_l1.start+6.323s" dur="3.096s" keyTimes="0;0.01;0.011;0.021;0.022000000000000002;0.031;0.032;0.041;0.042;0.052;0.053;0.062;0.063;0.073;0.074;0.083;0.084;0.093;0.094;0.104;0.105;1" values="568.863,334.25;568.863,334.25;568.949,334.25;568.949,334.25;568.946,334.25;568.946,334.25;568.974,334.25;568.974,334.25;568.935,334.25;568.935,334.25;568.961,334.25;568.961,334.25;568.958,334.25;568.958,334.25;568.929,334.25;568.929,334.25;568.969,334.25;568.969,334.25;569.036,334.25;569.036,334.25;568.964,334.25;568.964,334.25" calcMode="discrete"/><animateTransform attributeName="transform" additive="sum" type="rotate" begin="Scene_1_l1.start" dur="6.323s" keyTimes="0;0.867;0.868;0.872;0.873;0.877;0.878;0.882;0.883;0.888;0.889;0.893;0.894;0.898;0.899;0.903;0.904;0.908;0.909;0.913;0.914;0.918;0.919;0.923;0.924;0.928;0.929;0.934;0.935;1" values="15.001,0,0;15.001,0,0;11.629,0,0;11.629,0,0;8.915,0,0;8.915,0,0;6.68,0,0;6.68,0,0;4.843,0,0;4.843,0,0;3.459,0,0;3.459,0,0;2.407,0,0;2.407,0,0;1.608,0,0;1.608,0,0;1.008,0,0;1.008,0,0;0.585,0,0;0.585,0,0;0.315,0,0;0.315,0,0;0.146,0,0;0.146,0,0;0.047,0,0;0.047,0,0;0.003,0,0;0.003,0,0;0,0,0;0,0,0" calcMode="discrete"/><animateTransform attributeName="transform" additive="sum" type="skewX" begin="Scene_1_l1.start" dur="6.323s" keyTimes="0;0.867;0.868;0.872;0.873;0.888;0.889;0.898;0.899;0.903;0.904;0.908;0.909;0.913;0.914;0.918;0.919;1" values="0;0;-0.001;-0.001;-0.002;-0.002;-0.001;-0.001;0;0;-0.001;-0.001;0;0;-0.001;-0.001;0;0" calcMode="discrete"/><animateTransform attributeName="transform" additive="sum" type="scale" begin="Scene_1_l1.start" dur="6.323s" keyTimes="0;0.867;0.868;0.872;0.873;0.877;0.878;0.882;0.883;0.888;0.889;0.893;0.894;0.898;0.899;0.903;0.904;0.908;0.909;0.913;0.914;0.918;0.919;0.923;0.924;0.928;0.929;0.934;0.935;1" values="0.999,0.999;0.999,0.999;1.031,1.03;1.031,1.03;1.06,1.06;1.06,1.06;1.088,1.087;1.088,1.087;1.113,1.112;1.113,1.112;1.133,1.133;1.133,1.133;1.15,1.149;1.15,1.149;1.163,1.162;1.163,1.162;1.173,1.172;1.173,1.172;1.18,1.18;1.18,1.18;1.185,1.184;1.185,1.184;1.188,1.187;1.188,1.187;1.19,1.189;1.19,1.189;1.19,1.19;1.19,1.19;1.191,1.19;1.191,1.19" calcMode="discrete"/><animateTransform attributeName="transform" additive="sum" type="scale" begin="Scene_1_l1.start+6.323s" dur="3.096s" keyTimes="0;1" values="1.191,1.19;1.191,1.19" calcMode="discrete"/><animateTransform attributeName="transform" additive="sum" type="translate" begin="Scene_1_l1.start" dur="6.323s" keyTimes="0;0.867;0.868;0.872;0.873;0.877;0.878;0.882;0.883;0.888;0.889;0.893;0.894;0.898;0.899;0.903;0.904;0.908;0.909;0.913;0.914;0.918;0.919;0.923;0.924;0.928;0.929;0.934;0.935;0.999;1" values="0.05,0.05;0.05,0.05;-21.05,-27.7;-21.05,-27.7;-35.6,-51.8;-35.6,-51.8;-45.85,-72.6;-45.85,-72.6;-52.95,-90.3;-52.95,-90.3;-57.6,-103.85;-57.6,-103.85;-60.7,-114.5;-60.7,-114.5;-62.8,-122.4;-62.8,-122.4;-64.25,-128.45;-64.25,-128.45;-65.15,-132.75;-65.15,-132.75;-65.7,-135.45;-65.7,-135.45;-66,-137.2;-66,-137.2;-66.3,-138.2;-66.3,-138.2;-66.3,-138.7;-66.3,-138.7;0.05,0;0.05,0;35.1,0" calcMode="discrete"/><animateTransform attributeName="transform" additive="sum" type="translate" begin="Scene_1_l1.start+6.323s" dur="3.096s" keyTimes="0;0.01;0.011;0.021;0.022000000000000002;0.031;0.032;0.041;0.042;0.052;0.053;0.062;0.063;0.073;0.074;0.083;0.084;0.093;0.094;0.104;0.105;1" values="35.1,0;35.1,0;64.3,0;64.3,0;89.25,0;89.25,0;109.05,0;109.05,0;123.95,0;123.95,0;135.1,0;135.1,0;143.25,0;143.25,0;148.65,0;148.65,0;151.85,0;151.85,0;153.6,0;153.6,0;154.5,0;154.5,0" calcMode="discrete"/></use><animate attributeName="display" begin="Scene_1_l1.start" repeatCount="1" dur="9.419s" keyTimes="0;0.579;0.709;1" values="none;inline;none;none"/></g></g><g mask="url(#mask_)"><g id="home" transform="translate(610.6 362.75)"><animate attributeName="opacity" begin="Scene_1_l1.start" dur="9.419s" keyTimes="0;0.908;0.928;1" values="0;0;1;1" keySplines=".25 .5 .5 1;.25 .5 .5 1;.1 .1 .9 .9" calcMode="spline"/><path fill="#FFF" d="M-92.6-165.4v298.2H93.15v-298.2H-92.6"/><path fill="#F3EFF9" d="M92.45 81.75h.15v-117.1L5.7.75q-1.1.45-2.6.7-1.45.25-3 .25t-3-.25q-1.5-.25-2.6-.7L-92.4-35.5v181.85H92.45v-64.6"/><path fill="#EFE9F4" d="M92.6-35.35V-165.1h-185v129.6L-5.5.75q1.1.45 2.6.7 1.45.25 3 .25t3-.25q1.5-.25 2.6-.7l86.9-36.1m-90.05-85.1L40.5-104.6q.5.2.95.55.4.4.75.9.3.45.5 1 .15.55.2 1.05v23.2q0 .5-.2 1.05-.2.5-.5 1-.35.5-.75.9-.45.35-.95.55L2.55-58.55q-1 .4-2.4.4-.65 0-1.25-.1t-1.1-.3L-40.05-74.4q-.45-.2-.9-.55-.45-.4-.75-.9-.35-.5-.5-1-.2-.55-.2-1.05v-23.2q0-.5.2-1.05.15-.55.5-1 .3-.5.75-.9.45-.35.9-.55l37.85-15.85q.5-.2 1.1-.3.6-.1 1.25-.1 1.4-.05 2.4.4"/><path fill="#895FC0" d="M60.75-107.9q-.65-.5-1.4-.85L2.7-132.4q-1.55-.65-3.6-.6-.95 0-1.9.15-.9.15-1.6.45l-56.55 23.65q-.65.35-1.35.85-.7.6-1.15 1.35-.5.65-.7 1.45-.3.85-.3 1.6v34.65q0 .75.3 1.55.2.75.7 1.55.45.7 1.15 1.3.7.55 1.35.85L-4.4-40q.7.35 1.6.45.95.2 1.9.2 2.05 0 3.6-.65l56.65-23.6q.75-.3 1.4-.85.6-.6 1.15-1.3.45-.8.7-1.55.35-.8.35-1.55v-34.65q-.1-.75-.35-1.6-.25-.8-.7-1.45-.55-.75-1.15-1.35"/><path fill="#FFF" d="M24.7-100.45l-3.9-4.1L-4-76.8l-12.4-11-3.75 3.65L-4-69.2l28.7-31.25"/></g><animate attributeName="display" begin="Scene_1_l1.start" repeatCount="1" dur="9.419s" keyTimes="0;0.908;1" values="none;inline;none"/></g><mask id="mask_"><g><path fill="#FFF" d="M703.25 528.15v-330h-185v330h185"/><animate attributeName="display" begin="Scene_1_l1.start" repeatCount="1" dur="9.419s" keyTimes="0;1" values="inline;none"/></g></mask></g></svg>